<?xml version="1.0" encoding="utf-8"?>
<!-- Generator: Adobe Illustrator 16.0.0, SVG Export Plug-In . SVG Version: 6.00 Build 0)  -->
<!DOCTYPE svg PUBLIC "-//W3C//DTD SVG 1.1//EN" "http://www.w3.org/Graphics/SVG/1.1/DTD/svg11.dtd">
<svg version="1.1" id="Layer_1" xmlns="http://www.w3.org/2000/svg" xmlns:xlink="http://www.w3.org/1999/xlink" x="0px" y="0px"
	 width="299.352px" height="292.178px" viewBox="0 0 299.352 292.178" enable-background="new 0 0 299.352 292.178"
	 xml:space="preserve">
<g>
	<path d="M-516.01-135.697h-139.219l4.855-76.234h107.094l3.656,57.371c0.211,3.309,3.059,5.82,6.367,5.609s5.816-3.062,5.605-6.371
		l-3.98-62.504c0-0.035,0.004-0.07,0.004-0.105c0-0.285-0.027-0.566-0.066-0.84l-6.699-105.172c-0.199-3.16-2.82-5.617-5.988-5.617
		h-16.555l-9.613-59.219c-0.473-2.906-2.98-5.039-5.922-5.039h-35.243c-2.964,0-5.484,2.168-5.929,5.102l-8.965,59.156h-22.664
		c-3.164,0-5.785,2.457-5.985,5.617l-11.996,188.247h-15.066c-3.312,0-6,2.684-6,6v42.41c0,3.312,2.688,6,6,6s6-2.688,6-6v-36.41
		h154.309v30.41h-136.7c-3.312,0-6,2.684-6,6c0,3.312,2.688,6,6,6h142.7c3.312,0,6-2.688,6-6v-42.41
		C-510.01-133.01-512.698-135.697-516.01-135.697L-516.01-135.697z M-606.553-381.818h24.976l8.484,52.258h-20.07v-23.789
		c0-3.316-2.688-6-6-6c-3.316,0-6,2.684-6,6v23.789h-9.308L-606.553-381.818z M-621.448-317.561h55.406c0.004,0,0.012,0,0.016,0
		h16.016l5.969,93.629h-105.566l1.266-19.875h91.097c3.316,0,6-2.687,6-6c0-3.316-2.684-6-6-6h-90.332l3.934-61.754H-621.448z
		 M-621.448-317.561"/>
</g>
<path fill="none" stroke="#000000" stroke-width="11" stroke-linecap="round" stroke-miterlimit="10" d="M-468.854-30.822
	c0,0,5-8,24-6s9,14,33,13s25-7,25-7"/>
<g>
	<g>
		<path d="M141.523-290.77l98.442,98.443l-57.339,50.473L106.9-217.581l37.982-43.153c2.19-2.489,1.953-6.278-0.535-8.469
			c-2.489-2.19-6.278-1.947-8.469,0.542L94.495-221.65c-0.024,0.025-0.052,0.047-0.077,0.072c-0.202,0.201-0.381,0.419-0.547,0.641
			L24.24-141.831c-2.094,2.375-1.978,5.966,0.263,8.206l11.706,11.705L1.132-73.248c-1.72,2.39-1.455,5.671,0.625,7.751l24.92,24.92
			c2.096,2.096,5.411,2.345,7.8,0.585l48.169-35.49l16.026,16.025c2.237,2.237,5.828,2.354,8.204,0.261l141.592-124.628
			l10.653,10.653c2.343,2.342,6.141,2.345,8.485,0l29.988-29.989c2.343-2.342,2.343-6.143,0-8.485c-2.342-2.342-6.143-2.343-8.484,0
			l-25.746,25.746L154.251-295.012l21.504-21.503l96.661,96.661c2.342,2.342,6.14,2.345,8.485,0c2.342-2.342,2.342-6.144,0-8.485
			L179.997-329.243c-2.342-2.342-6.143-2.342-8.485,0l-29.988,29.988C139.182-296.913,139.182-293.112,141.523-290.77
			L141.523-290.77z M31.513-52.712L13.852-70.373l30.953-42.951l14.192,14.192L42.175-82.311c-2.345,2.345-2.342,6.143,0,8.485
			c2.345,2.345,6.141,2.345,8.485,0l16.821-16.821l6.582,6.582L31.513-52.712z M87.482-87.616l-39.178-39.179
			c-0.003-0.003-0.008-0.008-0.011-0.011l-11.325-11.325l61.985-70.426l74.647,74.647l-14.949,13.158l-64.416-64.416
			c-2.345-2.345-6.143-2.343-8.485,0c-2.345,2.345-2.345,6.14,0,8.485l63.875,63.875l-46.448,40.886L87.482-87.616z M87.482-87.616"
			/>
	</g>
	
		<line fill="none" stroke="#000000" stroke-width="13" stroke-linecap="round" stroke-miterlimit="10" x1="-73.854" y1="-42.822" x2="8.146" y2="-42.822"/>
</g>
<g>
	<path d="M141.523,40.23l98.442,98.443l-57.339,50.473L106.9,113.419l37.982-43.153c2.19-2.488,1.953-6.277-0.535-8.469
		c-2.489-2.189-6.278-1.947-8.469,0.542L94.495,109.35c-0.024,0.025-0.052,0.048-0.077,0.072c-0.202,0.201-0.381,0.42-0.547,0.641
		L24.24,189.169c-2.094,2.375-1.978,5.966,0.263,8.206l11.706,11.705L1.132,257.752c-1.72,2.39-1.455,5.671,0.625,7.751l24.92,24.92
		c2.096,2.096,5.411,2.345,7.8,0.585l48.169-35.49l16.026,16.025c2.237,2.237,5.828,2.354,8.204,0.261l141.592-124.628
		l10.653,10.652c2.343,2.342,6.141,2.346,8.485,0l29.988-29.988c2.343-2.342,2.343-6.143,0-8.484c-2.342-2.343-6.143-2.344-8.484,0
		l-25.746,25.745L154.251,35.988l21.504-21.504l96.661,96.662c2.342,2.342,6.14,2.345,8.485,0c2.342-2.343,2.342-6.145,0-8.486
		L179.997,1.757c-2.342-2.343-6.143-2.343-8.485,0l-29.988,29.988C139.182,34.088,139.182,37.889,141.523,40.23L141.523,40.23z
		 M31.513,278.288l-17.661-17.661l30.953-42.951l14.192,14.192l-16.822,16.821c-2.345,2.345-2.342,6.143,0,8.485
		c2.345,2.345,6.141,2.345,8.485,0l16.821-16.821l6.582,6.582L31.513,278.288z M87.482,243.384l-39.178-39.179
		c-0.003-0.003-0.008-0.008-0.011-0.011l-11.325-11.325l61.985-70.426l74.647,74.646l-14.949,13.158l-64.416-64.416
		c-2.345-2.345-6.143-2.342-8.485,0c-2.345,2.346-2.345,6.141,0,8.486l63.875,63.874l-46.448,40.886L87.482,243.384z
		 M87.482,243.384"/>
</g>
</svg>
