<?xml version="1.0" encoding="iso-8859-1"?>
<!-- Generator: Adobe Illustrator 17.1.0, SVG Export Plug-In . SVG Version: 6.00 Build 0)  -->
<!DOCTYPE svg PUBLIC "-//W3C//DTD SVG 1.1//EN" "http://www.w3.org/Graphics/SVG/1.1/DTD/svg11.dtd">
<svg version="1.1" id="Capa_1" xmlns="http://www.w3.org/2000/svg" xmlns:xlink="http://www.w3.org/1999/xlink" x="0px" y="0px"
	 viewBox="0 0 390.662 390.662" style="enable-background:new 0 0 390.662 390.662;" xml:space="preserve">
<path d="M299.273,322.651H125.251l6.072-95.294h133.865l4.569,71.717c0.263,4.134,3.823,7.275,7.961,7.008
	c4.134-0.263,7.271-3.827,7.008-7.961l-4.979-78.133c0.001-0.044,0.007-0.086,0.007-0.131c0-0.357-0.034-0.706-0.082-1.049
	l-8.376-131.464c-0.251-3.949-3.527-7.023-7.484-7.023h-20.696L231.101,6.298C230.511,2.668,227.376,0,223.697,0h-44.05
	c-3.708,0-6.859,2.71-7.415,6.376l-11.204,73.945h-28.329c-3.957,0-7.233,3.074-7.484,7.023l-14.993,235.307H91.389
	c-4.143,0-7.5,3.357-7.5,7.5v53.011c0,4.143,3.357,7.5,7.5,7.5s7.5-3.357,7.5-7.5v-45.511h192.885v38.011H120.901
	c-4.143,0-7.5,3.357-7.5,7.5s3.357,7.5,7.5,7.5h178.372c4.143,0,7.5-3.357,7.5-7.5v-53.011
	C306.773,326.009,303.416,322.651,299.273,322.651z M186.097,15h31.22l10.604,65.321h-25.089V50.585c0-4.143-3.357-7.5-7.5-7.5
	s-7.5,3.357-7.5,7.5v29.736h-11.632L186.097,15z M167.478,95.321h69.258c0.004-0.001,0.012-0.001,0.02,0h20.021l7.457,117.036
	H132.279l1.583-24.844h113.871c4.143,0,7.5-3.357,7.5-7.5s-3.357-7.5-7.5-7.5H134.818l4.918-77.192H167.478z"/>
<g>
</g>
<g>
</g>
<g>
</g>
<g>
</g>
<g>
</g>
<g>
</g>
<g>
</g>
<g>
</g>
<g>
</g>
<g>
</g>
<g>
</g>
<g>
</g>
<g>
</g>
<g>
</g>
<g>
</g>
</svg>
