<?xml version="1.0" encoding="utf-8"?>
<!-- Generator: Adobe Illustrator 16.0.0, SVG Export Plug-In . SVG Version: 6.00 Build 0)  -->
<!DOCTYPE svg PUBLIC "-//W3C//DTD SVG 1.1//EN" "http://www.w3.org/Graphics/SVG/1.1/DTD/svg11.dtd">
<svg version="1.1" id="Layer_1" xmlns="http://www.w3.org/2000/svg" xmlns:xlink="http://www.w3.org/1999/xlink" x="0px" y="0px"
	 width="299.353px" height="292.178px" viewBox="0 0 299.353 292.178" enable-background="new 0 0 299.353 292.178"
	 xml:space="preserve">
<g>
	<path fill="#E62264" d="M141.524,40.23l98.442,98.443l-57.339,50.473L106.9,113.419l37.982-43.153
		c2.19-2.488,1.953-6.277-0.535-8.469c-2.489-2.189-6.278-1.947-8.469,0.542L94.496,109.35c-0.024,0.025-0.053,0.048-0.077,0.072
		c-0.202,0.201-0.381,0.42-0.547,0.641l-69.631,79.106c-2.094,2.375-1.978,5.966,0.263,8.206L36.21,209.08L1.133,257.752
		c-1.721,2.39-1.455,5.671,0.625,7.751l24.92,24.92c2.096,2.096,5.411,2.345,7.801,0.585l48.168-35.49l16.026,16.025
		c2.237,2.237,5.827,2.354,8.204,0.261l141.592-124.628l10.653,10.652c2.343,2.342,6.141,2.346,8.485,0l29.988-29.988
		c2.343-2.342,2.343-6.143,0-8.484c-2.342-2.343-6.143-2.344-8.484,0l-25.746,25.745L154.252,35.988l21.504-21.504l96.661,96.662
		c2.342,2.342,6.14,2.345,8.485,0c2.342-2.343,2.342-6.145,0-8.486L179.998,1.757c-2.342-2.343-6.143-2.343-8.485,0l-29.988,29.988
		C139.183,34.088,139.183,37.889,141.524,40.23L141.524,40.23z M31.514,278.288l-17.66-17.661l30.952-42.951l14.192,14.192
		l-16.822,16.821c-2.345,2.345-2.342,6.143,0,8.485c2.346,2.345,6.141,2.345,8.486,0l16.82-16.821l6.582,6.582L31.514,278.288z
		 M87.483,243.384l-39.179-39.179c-0.002-0.003-0.008-0.008-0.011-0.011l-11.325-11.325l61.986-70.426l74.646,74.646l-14.949,13.158
		l-64.416-64.416c-2.345-2.345-6.143-2.342-8.484,0c-2.346,2.346-2.346,6.141,0,8.486l63.874,63.874l-46.448,40.886L87.483,243.384z
		 M87.483,243.384"/>
</g>
</svg>
