<?xml version="1.0" encoding="utf-8"?>
<!-- Generator: Adobe Illustrator 16.0.0, SVG Export Plug-In . SVG Version: 6.00 Build 0)  -->
<!DOCTYPE svg PUBLIC "-//W3C//DTD SVG 1.1//EN" "http://www.w3.org/Graphics/SVG/1.1/DTD/svg11.dtd">
<svg version="1.1" id="Layer_1" xmlns="http://www.w3.org/2000/svg" xmlns:xlink="http://www.w3.org/1999/xlink" x="0px" y="0px"
	 width="299.352px" height="292.178px" viewBox="0 0 299.352 292.178" enable-background="new 0 0 299.352 292.178"
	 xml:space="preserve">
<g>
	<path d="M141.523,40.23l98.442,98.443l-57.339,50.473L106.9,113.419l37.982-43.153c2.19-2.488,1.953-6.277-0.535-8.469
		c-2.489-2.189-6.278-1.947-8.469,0.542L94.495,109.35c-0.024,0.025-0.052,0.048-0.077,0.072c-0.202,0.201-0.381,0.42-0.547,0.641
		L24.24,189.169c-2.094,2.375-1.978,5.966,0.263,8.206l11.706,11.705L1.132,257.752c-1.72,2.39-1.455,5.671,0.625,7.751l24.92,24.92
		c2.096,2.096,5.411,2.345,7.8,0.585l48.169-35.49l16.026,16.025c2.237,2.237,5.828,2.354,8.204,0.261l141.592-124.628
		l10.653,10.652c2.343,2.342,6.141,2.346,8.485,0l29.988-29.988c2.343-2.342,2.343-6.143,0-8.484c-2.342-2.343-6.143-2.344-8.484,0
		l-25.746,25.745L154.251,35.988l21.504-21.504l96.661,96.662c2.342,2.342,6.14,2.345,8.485,0c2.342-2.343,2.342-6.145,0-8.486
		L179.997,1.757c-2.342-2.343-6.143-2.343-8.485,0l-29.988,29.988C139.182,34.088,139.182,37.889,141.523,40.23L141.523,40.23z
		 M31.513,278.288l-17.661-17.661l30.953-42.951l14.192,14.192l-16.822,16.821c-2.345,2.345-2.342,6.143,0,8.485
		c2.345,2.345,6.141,2.345,8.485,0l16.821-16.821l6.582,6.582L31.513,278.288z M87.482,243.384l-39.178-39.179
		c-0.003-0.003-0.008-0.008-0.011-0.011l-11.325-11.325l61.985-70.426l74.647,74.646l-14.949,13.158l-64.416-64.416
		c-2.345-2.345-6.143-2.342-8.485,0c-2.345,2.346-2.345,6.141,0,8.486l63.875,63.874l-46.448,40.886L87.482,243.384z
		 M87.482,243.384"/>
</g>
</svg>
