<?xml version="1.0" encoding="utf-8"?>
<!-- Generator: Adobe Illustrator 16.0.0, SVG Export Plug-In . SVG Version: 6.00 Build 0)  -->
<!DOCTYPE svg PUBLIC "-//W3C//DTD SVG 1.1//EN" "http://www.w3.org/Graphics/SVG/1.1/DTD/svg11.dtd">
<svg version="1.1" id="Layer_1" xmlns="http://www.w3.org/2000/svg" xmlns:xlink="http://www.w3.org/1999/xlink" x="0px" y="0px"
	 width="176.54px" height="47.46px" viewBox="0 0 176.54 47.46" enable-background="new 0 0 176.54 47.46" xml:space="preserve">
<g>
	<path fill="#FFC107" d="M16.45,47.39c-0.794,0-1.727-0.023-2.8-0.07c-1.074-0.047-2.182-0.139-3.325-0.279
		c-1.144-0.141-2.275-0.314-3.395-0.525c-1.12-0.209-2.147-0.5-3.08-0.875C1.283,44.66,0,42.957,0,40.53V7.84
		C0,6.86,0.268,6.103,0.805,5.565C1.341,5.029,2.076,4.597,3.01,4.271C4.596,3.71,6.58,3.302,8.96,3.045
		c2.38-0.256,4.83-0.385,7.35-0.385c5.973,0,10.57,1.004,13.79,3.01c3.22,2.007,4.83,5.11,4.83,9.31c0,2.101-0.607,3.91-1.82,5.426
		c-1.214,1.517-2.847,2.625-4.9,3.324c2.333,0.654,4.281,1.845,5.845,3.57c1.563,1.727,2.345,3.897,2.345,6.51
		c0,4.621-1.715,8.039-5.145,10.256C27.825,46.28,22.89,47.39,16.45,47.39z M11.9,20.44h5.11c2.006,0,3.465-0.373,4.375-1.121
		c0.91-0.745,1.365-1.842,1.365-3.289c0-1.26-0.525-2.264-1.575-3.01c-1.05-0.746-2.625-1.121-4.725-1.121
		c-0.7,0-1.505,0.025-2.415,0.07c-0.91,0.047-1.622,0.117-2.135,0.211V20.44z M11.9,37.521c0.653,0.187,1.493,0.314,2.52,0.385
		c1.026,0.07,2.006,0.105,2.94,0.105c1.866,0,3.418-0.386,4.655-1.156c1.236-0.77,1.855-1.971,1.855-3.604
		c0-1.54-0.514-2.636-1.54-3.29c-1.027-0.652-2.59-0.98-4.69-0.98H11.9V37.521z"/>
	<path fill="#FFC107" d="M77.42,29.261c0,2.894-0.444,5.471-1.33,7.734c-0.887,2.264-2.135,4.165-3.745,5.705
		s-3.535,2.707-5.775,3.5s-4.737,1.189-7.49,1.189c-2.754,0-5.25-0.42-7.49-1.26c-2.24-0.84-4.165-2.041-5.775-3.605
		c-1.61-1.562-2.859-3.465-3.745-5.705c-0.887-2.239-1.33-4.76-1.33-7.559c0-2.754,0.443-5.25,1.33-7.49
		c0.886-2.24,2.135-4.142,3.745-5.705c1.61-1.563,3.535-2.766,5.775-3.605c2.24-0.84,4.736-1.26,7.49-1.26
		c2.753,0,5.25,0.432,7.49,1.295s4.165,2.077,5.775,3.641s2.858,3.465,3.745,5.704C76.976,24.08,77.42,26.554,77.42,29.261z
		 M52.92,29.261c0,2.846,0.548,5.028,1.645,6.545c1.096,1.517,2.625,2.274,4.585,2.274s3.465-0.771,4.515-2.31
		c1.05-1.541,1.575-3.711,1.575-6.51c0-2.801-0.537-4.959-1.61-6.476c-1.074-1.517-2.59-2.274-4.55-2.274
		c-1.96,0-3.477,0.758-4.55,2.274C53.456,24.302,52.92,26.46,52.92,29.261z"/>
	<path fill="#FFC107" d="M104.79,24.71c0-1.445-0.409-2.508-1.225-3.186c-0.817-0.676-1.925-1.014-3.325-1.014
		c-0.934,0-1.855,0.116-2.765,0.35c-0.91,0.234-1.692,0.584-2.345,1.05V46.2c-0.467,0.14-1.202,0.279-2.205,0.42
		c-1.004,0.141-2.042,0.21-3.115,0.21c-1.027,0-1.949-0.069-2.765-0.21c-0.817-0.141-1.505-0.42-2.065-0.84
		s-0.992-0.991-1.295-1.715c-0.304-0.723-0.455-1.668-0.455-2.836v-21c0-1.26,0.268-2.285,0.805-3.08
		c0.536-0.793,1.271-1.516,2.205-2.17c1.586-1.119,3.581-2.029,5.985-2.729c2.403-0.7,5.075-1.05,8.015-1.05
		c5.273,0,9.333,1.154,12.18,3.465c2.846,2.311,4.27,5.52,4.27,9.625V46.2c-0.467,0.14-1.202,0.279-2.205,0.42
		c-1.004,0.141-2.042,0.21-3.115,0.21c-1.027,0-1.949-0.069-2.765-0.21c-0.817-0.141-1.505-0.42-2.065-0.84
		c-0.56-0.42-0.992-0.991-1.295-1.715c-0.304-0.723-0.455-1.668-0.455-2.836V24.71z"/>
	<path fill="#FFC107" d="M122.569,29.261c0-3.08,0.466-5.752,1.4-8.016c0.933-2.264,2.228-4.141,3.885-5.635
		c1.656-1.493,3.593-2.602,5.81-3.325c2.216-0.724,4.608-1.085,7.175-1.085c0.933,0,1.843,0.082,2.73,0.244
		c0.886,0.164,1.61,0.363,2.17,0.596V0.7c0.466-0.141,1.213-0.291,2.24-0.455C149.005,0.082,150.055,0,151.129,0
		c1.026,0,1.948,0.069,2.765,0.21c0.816,0.141,1.505,0.42,2.065,0.84s0.98,0.992,1.26,1.715c0.28,0.725,0.42,1.67,0.42,2.836v33.18
		c0,2.193-1.027,3.943-3.08,5.25c-1.354,0.887-3.104,1.669-5.25,2.345c-2.147,0.676-4.62,1.015-7.42,1.015
		c-3.034,0-5.752-0.42-8.155-1.26c-2.404-0.84-4.434-2.053-6.09-3.64c-1.657-1.586-2.917-3.488-3.78-5.705
		C123,34.569,122.569,32.06,122.569,29.261z M142.449,20.511c-2.52,0-4.457,0.723-5.81,2.17c-1.354,1.446-2.03,3.639-2.03,6.58
		c0,2.894,0.63,5.074,1.89,6.545c1.26,1.469,3.08,2.205,5.46,2.205c0.84,0,1.598-0.129,2.275-0.386
		c0.676-0.256,1.201-0.548,1.575-0.875V21.351C144.875,20.79,143.755,20.511,142.449,20.511z"/>
	<path fill="#FFC107" d="M162.959,40.601c0-1.961,0.606-3.594,1.82-4.9c1.213-1.307,2.87-1.96,4.97-1.96s3.756,0.653,4.97,1.96
		c1.213,1.307,1.82,2.939,1.82,4.9c0,1.959-0.607,3.594-1.82,4.899c-1.214,1.306-2.87,1.96-4.97,1.96s-3.757-0.654-4.97-1.96
		C163.565,44.194,162.959,42.56,162.959,40.601z"/>
</g>
</svg>
