<?xml version="1.0" encoding="utf-8"?>
<!-- Generator: Adobe Illustrator 16.0.0, SVG Export Plug-In . SVG Version: 6.00 Build 0)  -->
<!DOCTYPE svg PUBLIC "-//W3C//DTD SVG 1.1//EN" "http://www.w3.org/Graphics/SVG/1.1/DTD/svg11.dtd">
<svg version="1.1" id="Layer_1" xmlns="http://www.w3.org/2000/svg" xmlns:xlink="http://www.w3.org/1999/xlink" x="0px" y="0px"
	 width="157.64px" height="47.39px" viewBox="0 0 157.64 47.39" enable-background="new 0 0 157.64 47.39" xml:space="preserve">
<g>
	<path d="M16.45,47.39c-0.794,0-1.727-0.024-2.8-0.07c-1.074-0.047-2.182-0.14-3.325-0.28C9.181,46.9,8.05,46.725,6.93,46.515
		s-2.147-0.501-3.08-0.875C1.283,44.661,0,42.958,0,40.53V7.84c0-0.98,0.268-1.738,0.805-2.275C1.341,5.029,2.076,4.597,3.01,4.27
		c1.586-0.56,3.57-0.968,5.95-1.225c2.38-0.256,4.83-0.385,7.35-0.385c5.973,0,10.57,1.004,13.79,3.01
		c3.22,2.007,4.83,5.11,4.83,9.31c0,2.1-0.607,3.909-1.82,5.425c-1.214,1.517-2.847,2.625-4.9,3.325
		c2.333,0.654,4.281,1.844,5.845,3.57c1.563,1.727,2.345,3.897,2.345,6.51c0,4.62-1.715,8.039-5.145,10.255
		C27.825,46.281,22.89,47.39,16.45,47.39z M11.9,20.44h5.11c2.006,0,3.465-0.373,4.375-1.12c0.91-0.746,1.365-1.843,1.365-3.29
		c0-1.26-0.525-2.263-1.575-3.01c-1.05-0.746-2.625-1.12-4.725-1.12c-0.7,0-1.505,0.024-2.415,0.07
		c-0.91,0.047-1.622,0.117-2.135,0.21V20.44z M11.9,37.52c0.653,0.187,1.493,0.315,2.52,0.385c1.026,0.07,2.006,0.105,2.94,0.105
		c1.866,0,3.418-0.385,4.655-1.155c1.236-0.77,1.855-1.971,1.855-3.605c0-1.54-0.514-2.636-1.54-3.29
		c-1.027-0.653-2.59-0.98-4.69-0.98H11.9V37.52z"/>
	<path d="M77.42,29.26c0,2.894-0.444,5.472-1.33,7.735c-0.887,2.264-2.135,4.166-3.745,5.705c-1.61,1.541-3.535,2.707-5.775,3.5
		s-4.737,1.19-7.49,1.19c-2.754,0-5.25-0.42-7.49-1.261c-2.24-0.84-4.165-2.041-5.775-3.604c-1.61-1.563-2.859-3.465-3.745-5.705
		c-0.887-2.24-1.33-4.76-1.33-7.56c0-2.753,0.443-5.25,1.33-7.49c0.886-2.24,2.135-4.141,3.745-5.705
		c1.61-1.563,3.535-2.765,5.775-3.605c2.24-0.84,4.736-1.26,7.49-1.26c2.753,0,5.25,0.432,7.49,1.295
		c2.24,0.864,4.165,2.077,5.775,3.64c1.61,1.564,2.858,3.465,3.745,5.705C76.976,24.08,77.42,26.554,77.42,29.26z M52.92,29.26
		c0,2.847,0.548,5.029,1.645,6.545c1.096,1.517,2.625,2.275,4.585,2.275s3.465-0.77,4.515-2.31c1.05-1.54,1.575-3.71,1.575-6.51
		c0-2.8-0.537-4.958-1.61-6.475c-1.074-1.516-2.59-2.275-4.55-2.275c-1.96,0-3.477,0.759-4.55,2.275
		C53.456,24.302,52.92,26.46,52.92,29.26z"/>
	<path d="M104.79,24.71c0-1.446-0.409-2.508-1.225-3.185c-0.817-0.676-1.925-1.015-3.325-1.015c-0.934,0-1.855,0.117-2.765,0.35
		c-0.91,0.234-1.692,0.584-2.345,1.05V46.2c-0.467,0.141-1.202,0.28-2.205,0.42c-1.004,0.141-2.042,0.211-3.115,0.211
		c-1.027,0-1.949-0.07-2.765-0.211c-0.817-0.14-1.505-0.42-2.065-0.84s-0.992-0.99-1.295-1.715
		c-0.304-0.723-0.455-1.668-0.455-2.835v-21c0-1.26,0.268-2.286,0.805-3.08c0.536-0.793,1.271-1.516,2.205-2.17
		c1.586-1.12,3.581-2.03,5.985-2.73c2.403-0.7,5.075-1.05,8.015-1.05c5.273,0,9.333,1.155,12.18,3.465
		c2.846,2.31,4.27,5.519,4.27,9.625V46.2c-0.467,0.141-1.202,0.28-2.205,0.42c-1.004,0.141-2.042,0.211-3.115,0.211
		c-1.027,0-1.949-0.07-2.765-0.211c-0.817-0.14-1.505-0.42-2.065-0.84c-0.56-0.42-0.992-0.99-1.295-1.715
		c-0.304-0.723-0.455-1.668-0.455-2.835V24.71z"/>
	<path d="M122.569,29.26c0-3.08,0.466-5.751,1.4-8.015c0.933-2.263,2.228-4.141,3.885-5.635c1.656-1.493,3.593-2.601,5.81-3.325
		c2.216-0.723,4.608-1.085,7.175-1.085c0.933,0,1.843,0.082,2.73,0.245c0.886,0.164,1.61,0.362,2.17,0.595V0.7
		c0.466-0.14,1.213-0.291,2.24-0.455C149.005,0.082,150.055,0,151.129,0c1.026,0,1.948,0.07,2.765,0.21
		c0.816,0.14,1.505,0.42,2.065,0.84c0.56,0.42,0.98,0.992,1.26,1.715c0.28,0.724,0.42,1.669,0.42,2.835v33.18
		c0,2.194-1.027,3.944-3.08,5.25c-1.354,0.887-3.104,1.67-5.25,2.346c-2.147,0.676-4.62,1.015-7.42,1.015
		c-3.034,0-5.752-0.42-8.155-1.261c-2.404-0.84-4.434-2.053-6.09-3.639c-1.657-1.586-2.917-3.489-3.78-5.706
		C123,34.569,122.569,32.06,122.569,29.26z M142.449,20.51c-2.52,0-4.457,0.724-5.81,2.17c-1.354,1.447-2.03,3.64-2.03,6.58
		c0,2.894,0.63,5.075,1.89,6.545c1.26,1.47,3.08,2.205,5.46,2.205c0.84,0,1.598-0.128,2.275-0.385
		c0.676-0.256,1.201-0.548,1.575-0.875v-15.4C144.875,20.79,143.755,20.51,142.449,20.51z"/>
</g>
</svg>
