<?xml version="1.0" encoding="utf-8"?>
<!-- Generator: Adobe Illustrator 16.0.0, SVG Export Plug-In . SVG Version: 6.00 Build 0)  -->
<!DOCTYPE svg PUBLIC "-//W3C//DTD SVG 1.1//EN" "http://www.w3.org/Graphics/SVG/1.1/DTD/svg11.dtd">
<svg version="1.1" id="Layer_1" xmlns="http://www.w3.org/2000/svg" xmlns:xlink="http://www.w3.org/1999/xlink" x="0px" y="0px"
	 width="53.899px" height="44.8px" viewBox="0 0 53.899 44.8" enable-background="new 0 0 53.899 44.8" xml:space="preserve">
<g>
	<path fill="#3F51B5" d="M16.45,44.729c-0.794,0-1.727-0.023-2.8-0.07c-1.074-0.047-2.182-0.139-3.325-0.279
		c-1.144-0.141-2.275-0.314-3.395-0.525c-1.12-0.209-2.147-0.5-3.08-0.875C1.283,42,0,40.297,0,37.87V5.18
		C0,4.2,0.268,3.442,0.805,2.905C1.341,2.369,2.076,1.937,3.01,1.61C4.596,1.05,6.58,0.642,8.96,0.385C11.34,0.129,13.79,0,16.31,0
		c5.973,0,10.57,1.004,13.79,3.01c3.22,2.007,4.83,5.11,4.83,9.31c0,2.101-0.607,3.91-1.82,5.426
		c-1.214,1.517-2.847,2.625-4.9,3.324c2.333,0.654,4.281,1.845,5.845,3.57c1.563,1.727,2.345,3.897,2.345,6.51
		c0,4.621-1.715,8.039-5.145,10.256C27.825,43.62,22.89,44.729,16.45,44.729z M11.9,17.78h5.11c2.006,0,3.465-0.373,4.375-1.121
		c0.91-0.745,1.365-1.842,1.365-3.289c0-1.26-0.525-2.264-1.575-3.01c-1.05-0.746-2.625-1.121-4.725-1.121
		c-0.7,0-1.505,0.025-2.415,0.07c-0.91,0.047-1.622,0.117-2.135,0.211V17.78z M11.9,34.86c0.653,0.187,1.493,0.314,2.52,0.385
		c1.026,0.07,2.006,0.105,2.94,0.105c1.866,0,3.418-0.386,4.655-1.156c1.236-0.77,1.855-1.971,1.855-3.604
		c0-1.54-0.514-2.636-1.54-3.29c-1.027-0.652-2.59-0.98-4.69-0.98H11.9V34.86z"/>
	<path fill="#3F51B5" d="M40.319,37.94c0-1.961,0.606-3.594,1.82-4.9c1.213-1.307,2.87-1.96,4.97-1.96s3.756,0.653,4.97,1.96
		c1.213,1.307,1.82,2.939,1.82,4.9c0,1.959-0.607,3.594-1.82,4.899c-1.214,1.306-2.87,1.96-4.97,1.96s-3.757-0.654-4.97-1.96
		C40.925,41.534,40.319,39.899,40.319,37.94z"/>
</g>
</svg>
